<svg
	xmlns="http://www.w3.org/2000/svg"
	version="1.1"
	xmlns:xlink="http://www.w3.org/1999/xlink"
	xmlns:svgjs="http://svgjs.dev/svgjs"
	width="100"
	height="100"
>
	<svg width="100" height="100" viewBox="0 0 100 100" fill="none" xmlns="http://www.w3.org/2000/svg">
		<circle cx="50" cy="50" r="50" fill="#122744"></circle>
		<path
			d="M10.84 66V36.92H29.4V42.2H17.08V49.52H28V54.8H17.08V66H10.84ZM32.8106 64.96V59.4C35.8773 60.5467 38.824 61.12 41.6506 61.12C43.3306 61.12 44.6506 60.84 45.6106 60.28C46.5706 59.72 47.0506 58.9467 47.0506 57.96C47.0506 57.2667 46.744 56.6933 46.1306 56.24C45.5173 55.76 44.3306 55.2267 42.5706 54.64L39.5306 53.6C37.0506 52.7467 35.2373 51.6533 34.0906 50.32C32.9706 48.96 32.4106 47.2267 32.4106 45.12C32.4106 43.3067 32.864 41.7467 33.7706 40.44C34.704 39.1333 36.0106 38.1333 37.6906 37.44C39.3706 36.72 41.3706 36.36 43.6906 36.36C45.1573 36.36 46.5973 36.5067 48.0106 36.8C49.4506 37.0667 50.704 37.44 51.7706 37.92V43.48C50.4106 42.9467 49.024 42.5467 47.6106 42.28C46.1973 41.9867 44.8906 41.84 43.6906 41.84C40.384 41.84 38.7306 42.8133 38.7306 44.76C38.7306 45.5067 39.0373 46.12 39.6506 46.6C40.2906 47.0533 41.4773 47.5733 43.2106 48.16L46.2506 49.2C48.864 50.1067 50.7173 51.2133 51.8106 52.52C52.904 53.8 53.4506 55.5467 53.4506 57.76C53.4506 60.48 52.4773 62.6267 50.5306 64.2C48.6106 65.7733 45.8906 66.56 42.3706 66.56C41.224 66.56 40.024 66.4933 38.7706 66.36C37.544 66.2267 36.3973 66.04 35.3306 65.8C34.2906 65.56 33.4506 65.28 32.8106 64.96ZM57.5197 66V36.92H64.0397L73.2797 56.08L82.3997 36.92H88.9197V66H82.7597V47.16L75.0797 63.2H71.2397L63.5597 47.4V66H57.5197Z"
			fill="white"
		></path>
	</svg>
	<style>
		@media (prefers-color-scheme: light) {
			:root {
				filter: none;
			}
		}
		@media (prefers-color-scheme: dark) {
			:root {
				filter: none;
			}
		}
	</style>
</svg>
