<?xml version="1.0" standalone="no"?>
<!DOCTYPE svg PUBLIC "-//W3C//DTD SVG 20010904//EN"
 "http://www.w3.org/TR/2001/REC-SVG-20010904/DTD/svg10.dtd">
<svg version="1.0" xmlns="http://www.w3.org/2000/svg"
 width="700.000000pt" height="700.000000pt" viewBox="0 0 700.000000 700.000000"
 preserveAspectRatio="xMidYMid meet">
<metadata>
Created by potrace 1.14, written by Peter Selinger 2001-2017
</metadata>
<g transform="translate(0.000000,700.000000) scale(0.100000,-0.100000)"
fill="#000000" stroke="none">
<path d="M3280 6994 c-19 -2 -84 -9 -145 -14 -578 -56 -1180 -283 -1660 -625
-237 -169 -531 -446 -709 -670 -416 -521 -673 -1147 -748 -1820 -17 -155 -17
-575 0 -730 52 -469 198 -931 418 -1327 290 -523 731 -983 1239 -1294 439
-269 920 -432 1460 -496 145 -17 576 -17 730 0 822 91 1556 447 2131 1034 203
206 348 390 487 618 274 449 433 916 499 1465 16 136 16 592 0 730 -86 725
-352 1347 -803 1885 -122 145 -351 370 -494 484 -510 407 -1117 661 -1775 742
-117 15 -553 27 -630 18z m-7 -2555 c103 -15 224 -45 290 -69 l57 -21 0 -196
c0 -158 -3 -194 -13 -190 -140 54 -347 97 -497 104 -209 10 -336 -30 -379
-120 -50 -104 -6 -195 124 -253 28 -12 143 -54 255 -94 376 -132 493 -207 574
-369 78 -153 73 -407 -11 -564 -36 -68 -143 -175 -215 -216 -140 -79 -277
-106 -528 -105 -232 1 -470 37 -596 90 l-34 14 0 195 c0 107 1 195 3 195 1 0
36 -12 77 -26 203 -69 470 -106 631 -86 172 21 268 89 277 196 10 125 -36 156
-453 302 -221 77 -323 131 -411 219 -108 107 -154 226 -154 400 0 305 203 519
556 589 85 17 349 20 447 5z m-1215 -206 l2 -183 -430 0 -430 0 0 -260 0 -260
380 0 380 0 0 -185 0 -185 -380 0 -380 0 0 -390 0 -390 -220 0 -220 0 0 1020
0 1020 648 -2 647 -3 3 -182z m2746 -485 c177 -366 324 -663 328 -659 4 3 149
303 322 666 l313 660 227 3 226 2 0 -1020 0 -1020 -215 0 -215 0 -2 651 -3
651 -264 -551 -264 -551 -136 0 -137 0 -264 546 -265 545 -3 -645 -2 -646
-210 0 -210 0 0 1020 0 1020 227 -2 226 -3 321 -667z"/>
</g>
</svg>
